<svg width="27" height="27" viewBox="0 0 27 27" fill="none" xmlns="http://www.w3.org/2000/svg">
<g clip-path="url(#clip0)">
<path d="M8.9601 5.03077C9.31402 4.66447 9.90307 4.66447 10.2694 5.03077C10.6233 5.38469 10.6233 5.97374 10.2694 6.32684L3.6306 12.9656H25.5376C26.0483 12.9664 26.4542 13.3723 26.4542 13.883C26.4542 14.3937 26.0483 14.8128 25.5376 14.8128H3.6306L10.2694 21.4392C10.6233 21.8055 10.6233 22.3954 10.2694 22.7485C9.90307 23.1148 9.3132 23.1148 8.9601 22.7485L0.749699 14.5381C0.3834 14.1841 0.3834 13.5951 0.749699 13.242L8.9601 5.03077Z" fill="white"/>
</g>
<defs>
<clipPath id="clip0">
<rect width="25.9792" height="25.9792" transform="matrix(-1 0 0 1 26.4542 0.900024)" fill="white"/>
</clipPath>
</defs>
</svg>
