<svg width="27" height="27" viewBox="0 0 27 27" fill="none" xmlns="http://www.w3.org/2000/svg">
<g clip-path="url(#clip0)">
<path d="M17.7441 5.03077C17.3902 4.66447 16.8011 4.66447 16.4349 5.03077C16.0809 5.38469 16.0809 5.97374 16.4349 6.32684L23.0736 12.9656H1.16657C0.6559 12.9664 0.25 13.3723 0.25 13.883C0.25 14.3937 0.6559 14.8128 1.16657 14.8128H23.0736L16.4349 21.4392C16.0809 21.8055 16.0809 22.3954 16.4349 22.7485C16.8011 23.1148 17.391 23.1148 17.7441 22.7485L25.9545 14.5381C26.3208 14.1841 26.3208 13.5951 25.9545 13.242L17.7441 5.03077Z" fill="white"/>
</g>
<defs>
<clipPath id="clip0">
<rect x="0.25" y="0.900024" width="25.9792" height="25.9792" fill="white"/>
</clipPath>
</defs>
</svg>
