<svg width="135" height="58" viewBox="0 0 135 58" fill="none" xmlns="http://www.w3.org/2000/svg">
<g clip-path="url(#clip0_116_2)">
<path d="M25.2945 31.3614L27.1403 36.7821C28.139 39.7135 29.0306 42.0573 29.1469 42.0573C29.1488 42.0572 29.1506 42.0564 29.152 42.0551C29.2797 41.9423 32.8926 31.4502 32.8926 31.4502H39.8948L31.447 56.0653H26.5802C26.5802 56.0653 21.3854 41.062 21.4067 41.0051L15.9842 55.8765H11.1663L2.82495 31.3614L9.79312 31.3659C9.79312 31.3659 13.6102 42.1854 13.6611 42.1854L13.6615 42.185L17.4702 31.361L25.2945 31.3614M0.446022 29.6566L1.21267 31.9099L9.55403 56.4249L9.94683 57.5797H17.1762L17.5846 56.4598L21.3497 46.1343C21.6741 47.0783 22.0248 48.0957 22.3754 49.1121C23.2392 51.6159 24.1044 54.1193 24.9709 56.6223L25.3677 57.7685H32.6633L33.058 56.6184L41.5058 32.0036L42.2802 29.747H31.6778L31.2822 30.8958C30.5564 33.0035 29.8257 35.1095 29.0902 37.2138C28.9765 36.887 28.8639 36.5599 28.7524 36.2324L26.9068 30.812L26.5137 29.6578H16.2642L15.8637 30.796L13.6383 37.1204C12.8895 35.0142 12.1432 32.9071 11.3994 30.7992L10.9988 29.6636L9.7944 29.6627L2.82623 29.6583L0.446022 29.6566V29.6566ZM133.136 31.2661L133.12 37.718C133.12 37.718 126.17 37.695 122.637 37.695C121.462 37.695 120.664 37.6979 120.627 37.7045C120.018 37.8155 119.63 39.1103 119.803 39.6783C119.888 39.966 120.525 40.9046 121.215 41.7671C121.902 42.6297 123.033 44.0413 123.722 44.9029C125.493 47.113 125.736 47.5492 125.9 48.8183C126.166 50.8798 125.192 53.1103 123.382 54.5814C121.568 56.0568 121.648 56.0673 108.185 56.0673H107.594C99.4053 56.0649 95.0749 55.9972 94.4445 55.8569C93.3247 55.6036 91.54 54.1473 86.8247 49.6232C85.1285 47.9975 83.565 46.5741 83.4847 46.5737C83.4826 46.5737 83.4818 46.5752 83.4818 46.5775L83.426 56.0681L75.7834 56.0345L75.7361 31.5554H92.7812C97.9182 31.7408 101.395 36.8587 100.703 40.1224C100.546 40.8631 100.146 41.9365 99.813 42.5069C99.1294 43.6778 97.39 45.1809 95.9783 45.8262C95.4569 46.0619 95.0311 46.3365 95.0311 46.4344C95.0311 46.7985 96.7473 48.4885 97.39 48.757C97.9393 48.9867 99.5381 49.0378 106.59 49.0378L108.848 49.0382C115.936 49.0382 115.579 48.9871 116.127 47.8159C116.51 47.0008 116.219 46.5132 113.521 43.4749C110.104 40.0747 110.462 38.4461 110.438 37.2432C110.39 35.8017 111.525 31.2676 117.424 31.2676L133.136 31.2661M87.348 42.575C90.6202 42.575 91.2847 42.5244 91.9809 42.2218C94.3315 41.1997 94.4571 38.1812 92.2025 36.8417C91.7086 36.5477 91.0739 36.4993 87.527 36.48L83.4226 36.4582C83.4566 36.49 83.4096 42.3279 83.4096 42.3279C83.4096 42.3279 84.4377 42.575 87.348 42.575M134.843 29.5629H117.424C114.011 29.5629 111.992 30.9099 110.9 32.0404C109.122 33.8783 108.704 36.1928 108.736 37.2839C108.738 37.3748 108.737 37.468 108.736 37.5653C108.72 39.3385 108.981 41.346 112.283 44.6433C112.935 45.378 114.026 46.6101 114.44 47.2224C113.537 47.3333 111.25 47.3333 108.848 47.3333H107.828L106.59 47.3329C102.352 47.3329 98.7787 47.3205 98.0468 47.1762C97.9442 47.1098 97.8007 46.9944 97.6427 46.8573C99.1068 45.9561 100.587 44.5582 101.284 43.3634C101.707 42.6368 102.174 41.3956 102.369 40.475C102.804 38.4258 102.088 35.9539 100.453 33.8607C98.5465 31.4185 95.7726 29.9574 92.8431 29.8518L92.8123 29.8505H74.0297L74.0333 31.5575L74.0806 56.0364L74.084 57.7287L75.7763 57.7362L83.419 57.7698L85.1192 57.777L85.1296 56.0766L85.1624 50.3912C85.3182 50.5391 85.4796 50.6933 85.6457 50.8519C90.804 55.7996 92.5344 57.1707 94.0684 57.5175C94.4899 57.6112 95.1869 57.767 107.592 57.7704H108.184C114.9 57.7704 118.271 57.7704 120.276 57.5769C122.573 57.3549 123.312 56.8339 124.42 55.9319L124.457 55.9018C126.731 54.0522 127.932 51.2543 127.589 48.5994C127.366 46.8728 126.909 46.1556 125.051 43.8373L124.499 43.1475C123.847 42.3336 123.196 41.5192 122.545 40.7045C122.123 40.1757 121.79 39.7062 121.59 39.3986C121.853 39.3979 122.195 39.3975 122.637 39.3975C126.128 39.3975 133.045 39.4203 133.115 39.4207L134.82 39.426L134.824 37.7212L134.84 31.2688L134.843 29.5629V29.5629ZM85.1236 40.8097L85.1315 39.4135C85.1336 38.9877 85.1358 38.561 85.136 38.1702L87.5179 38.1827C88.8868 38.19 90.9464 38.2015 91.3479 38.3154C91.8602 38.6264 92.1463 39.1075 92.1152 39.6057C92.0982 39.8748 91.97 40.3696 91.3015 40.6596C90.929 40.8216 90.3352 40.8718 87.3484 40.8718C86.4006 40.8718 85.6697 40.8444 85.1236 40.8097ZM60.2503 31.1656L68.8282 55.8448L61.8385 55.8765L60.6782 52.1699L48.1811 52.0697L47.0782 55.7807L40.159 55.7081L48.6281 31.176L60.2503 31.1656ZM54.6295 34.7838C54.6119 34.8547 53.5344 37.8112 52.4533 40.7671C51.3633 43.7477 50.2696 46.7283 50.2545 46.7512C50.2834 46.7427 54.1539 46.7342 56.6346 46.7342C57.7956 46.7342 58.6518 46.7363 58.6678 46.7402L58.668 46.7412V46.7406L58.6678 46.7402C58.6244 46.6282 54.6421 34.9279 54.6295 34.7838L54.6298 34.7825L54.6295 34.7838ZM61.461 29.4611L60.249 29.4624L48.6269 29.4733L47.4142 29.4745L47.0184 30.6212L38.5493 55.1533L37.778 57.3872L40.1416 57.4117L47.0608 57.4843L48.3452 57.4977L48.7112 56.2667L49.4491 53.7839L59.4242 53.8638L60.2137 56.3864L60.5894 57.5869L61.847 57.5814L68.8365 57.5497L71.2197 57.5384L70.4368 55.2874L61.8589 30.6082L61.461 29.4611V29.4611ZM52.706 45.0334C53.0285 44.1541 53.4631 42.9661 54.053 41.3526L54.5625 39.9591L55.0243 41.3208C55.1618 41.7266 55.7662 43.5075 56.2846 45.0314C54.7432 45.0314 53.5829 45.0317 52.706 45.0334V45.0334ZM63.1414 1.70916V7.79806H50.9466V26.4205H43.6761V7.78337L29.4417 7.82361C27.7258 7.82361 27.4958 9.19041 27.4958 9.71414C27.4958 10.3573 27.9153 11.0001 30.2188 13.9168C31.7134 15.8113 33.0866 17.7021 33.2675 18.1151C34.2554 20.3891 32.978 23.9315 30.651 25.3707C28.9925 26.3954 29.2759 26.4207 16.9599 26.4207H1.70319V19.5801H22.546L23.1612 19.1521C23.5764 18.8628 23.817 18.4647 23.9085 17.9195C24.0362 17.136 23.9702 17.0338 21.3963 14.1343C18.354 10.7065 18.0325 10.0808 18.19 7.89237C18.3689 5.39507 20.5958 1.76707 24.4876 1.76707L63.1414 1.70916M64.8446 0.00341797L63.1387 0.00618565L24.4848 0.0636682C22.2583 0.0636682 20.1904 1.02597 18.6637 2.77238C17.426 4.18836 16.6135 6.0574 16.4909 7.77081C16.2838 10.6473 16.9459 11.6869 20.1221 15.2653C21.044 16.3036 21.9205 17.2912 22.213 17.7104C22.2099 17.7219 22.206 17.7332 22.2015 17.7442C22.1983 17.747 22.1934 17.7504 22.1866 17.7553L22.0116 17.8769H0V28.1239H16.9599C23.0322 28.1239 26.0294 28.1184 27.7952 27.9885C29.8156 27.8407 30.4602 27.4941 31.4259 26.8942L31.5464 26.8193C34.5828 24.9415 36.1476 20.4691 34.8298 17.4362C34.4231 16.5084 31.8486 13.2323 31.5562 12.8618C30.7481 11.8382 29.4141 10.1495 29.2029 9.66071C29.208 9.61983 29.218 9.57704 29.2286 9.54766C29.2638 9.53872 29.331 9.52658 29.4417 9.52658L41.9729 9.49103V28.1235H52.6498V9.50103H64.8446V0.00341797V0.00341797ZM82.9538 1.90694L91.508 26.65L84.5313 26.6117L83.3987 22.9051L70.9572 22.8498L69.8456 26.4203H62.7414L71.2018 1.90694H82.9538ZM72.9878 17.5807L81.4616 17.5701V17.5703C81.4907 17.5703 77.3437 5.3923 77.316 5.38379C77.2858 5.38272 72.8924 17.5807 72.9878 17.5807M84.1673 0.203755H69.9885L69.5927 1.35149L61.1319 25.865L60.3523 28.1237H71.1004L71.473 26.9266L72.2098 24.5589L82.138 24.603L82.9042 27.1094L83.2708 28.3078L84.5241 28.3149L91.501 28.3534L93.9061 28.3666L93.1203 26.0937L84.5661 1.35021L84.1673 0.203755ZM75.3539 15.8748C75.9877 14.0764 76.6274 12.2801 77.273 10.4859C77.8849 12.2798 78.4943 14.0745 79.1014 15.8701L75.3539 15.8748V15.8748ZM106.979 1.90694C112.498 1.90694 116.327 1.98572 117.064 2.11345C118.767 2.40981 120.306 3.31846 121.46 4.7155C122.667 6.17556 122.944 6.87429 123.102 8.87532C123.328 11.7007 121.984 14.1384 119.333 15.7198C118.561 16.1818 117.767 16.631 117.569 16.7204C117.264 16.8586 117.305 16.991 117.85 17.6297C118.2 18.0408 118.81 18.6263 119.201 18.9303L119.917 19.486L133.133 19.6755L133.263 26.4203H125.16C118.892 26.4203 116.887 26.3626 116.299 26.165C115.42 25.867 113.304 24.0744 109.003 19.9825L105.933 17.0613L105.965 26.4203H98.0781V1.90694H106.979ZM105.817 12.9287H110.005C114.08 12.9287 114.207 12.9157 114.789 12.4797C115.828 11.7005 116.196 10.8976 116.085 9.66496C115.973 8.39375 115.483 7.73206 114.255 7.19981C113.563 6.89728 112.896 6.84853 109.63 6.84853H105.817V12.9287M106.979 0.203755H96.3768V28.1235H107.675L107.67 26.4145L107.65 21.0459L107.83 21.2162C113.149 26.277 114.718 27.4271 115.753 27.7777C116.548 28.046 117.878 28.1235 125.161 28.1235H135L134.967 26.3877L134.837 19.6429L134.806 17.9965L133.16 17.9729L120.513 17.7917L120.248 17.5856C120.164 17.5196 120.061 17.4328 119.952 17.3344L120.209 17.1818C123.403 15.2757 125.077 12.1985 124.801 8.73971C124.617 6.40655 124.201 5.35547 122.774 3.63014C121.372 1.93356 119.448 0.79902 117.356 0.435602C116.193 0.233987 110.356 0.203755 106.979 0.203755V0.203755ZM107.52 8.55151H109.63C112.616 8.55151 113.208 8.60111 113.573 8.76036C114.265 9.05991 114.335 9.20553 114.389 9.81548C114.443 10.422 114.368 10.6658 113.767 11.1165L113.719 11.1518C113.322 11.2255 111.849 11.2255 110.005 11.2255H107.52V8.55151V8.55151Z" fill="#FFC500"/>
</g>
<defs>
<clipPath id="clip0_116_2">
<rect width="135" height="57.78" fill="white"/>
</clipPath>
</defs>
</svg>
